<svg width="61" height="61" viewBox="0 0 61 61" fill="none" xmlns="http://www.w3.org/2000/svg">
<rect width="61" height="61" rx="30.5" fill="#EDEDED"/>
<path fill-rule="evenodd" clip-rule="evenodd" d="M41 39.001C40.7373 39.001 40.4771 38.9492 40.2344 38.8487C39.9917 38.7481 39.7712 38.6007 39.5854 38.4149C39.3997 38.229 39.2524 38.0084 39.152 37.7657C39.0515 37.5229 38.9999 37.2627 39 37V25.001C39 24.4706 39.2107 23.9619 39.5858 23.5868C39.9609 23.2117 40.4696 23.001 41 23.001C41.5304 23.001 42.0391 23.2117 42.4142 23.5868C42.7893 23.9619 43 24.4706 43 25.001V37C43.0001 37.2627 42.9485 37.5229 42.848 37.7657C42.7476 38.0084 42.6003 38.229 42.4146 38.4149C42.2288 38.6007 42.0083 38.7481 41.7656 38.8487C41.5229 38.9492 41.2627 39.001 41 39.001ZM31 44C29.895 44 29 43.106 29 42.001V20C29 19.4696 29.2107 18.9609 29.5858 18.5858C29.9609 18.2107 30.4696 18 31 18C31.5304 18 32.0391 18.2107 32.4142 18.5858C32.7893 18.9609 33 19.4696 33 20V42.001C32.9997 42.5313 32.7889 43.0397 32.4139 43.4146C32.0388 43.7894 31.5303 44 31 44ZM20.999 39.001C20.7364 39.0009 20.4763 38.949 20.2337 38.8484C19.9911 38.7477 19.7707 38.6003 19.5851 38.4145C19.3995 38.2287 19.2522 38.0081 19.1519 37.7654C19.0515 37.5227 18.9999 37.2626 19 37V25.001C19 24.4706 19.2107 23.9619 19.5858 23.5868C19.9609 23.2117 20.4696 23.001 21 23.001C21.5304 23.001 22.0391 23.2117 22.4142 23.5868C22.7893 23.9619 23 24.4706 23 25.001V37C23 37.5307 22.7892 38.0397 22.4139 38.4149C22.0387 38.7902 21.5297 39.001 20.999 39.001V39.001Z" fill="#FF5A60"/>
</svg>
